HIERARCHY
ROOT Hips
{
	OFFSET 0.000000 71.427986 0.000000
	CHANNELS 6 Xposition Yposition Zposition Xrotation Yrotation Zrotation
	JOINT Pelvis
	{
		OFFSET 0.000000 0.000000 0.000000
		CHANNELS 3 Xrotation Yrotation Zrotation
		JOINT LeftUpLeg
		{
			OFFSET 6.797100 -2.508499 -1.318700
			CHANNELS 3 Xrotation Yrotation Zrotation
			JOINT LeftLeg
			{
				OFFSET 0.069008 -29.241863 0.690200
				CHANNELS 3 Xrotation Yrotation Zrotation
				JOINT LeftFoot
				{
					OFFSET -0.069008 -29.568123 -0.266800
					CHANNELS 3 Xrotation Yrotation Zrotation
					JOINT LeftToeBase
					{
						OFFSET 3.145500 -8.631000 16.059900
						CHANNELS 3 Xrotation Yrotation Zrotation
						End Site
						{
							OFFSET 0.000000 18.501587 0.000000
						}
					}
				}
			}
			JOINT Left_ShortSleeve
			{
				OFFSET 0.265923 -10.480953 1.153800
				CHANNELS 3 Xrotation Yrotation Zrotation
				End Site
				{
					OFFSET 1.725763 19.823879 0.000000
				}
			}
		}
		JOINT RightUpLeg
		{
			OFFSET -6.797100 -2.508499 -1.318700
			CHANNELS 3 Xrotation Yrotation Zrotation
			JOINT RightLeg
			{
				OFFSET -0.082453 -29.241932 0.688000
				CHANNELS 3 Xrotation Yrotation Zrotation
				JOINT RightFoot
				{
					OFFSET 0.082453 -29.568058 -0.264600
					CHANNELS 3 Xrotation Yrotation Zrotation
					JOINT RightToeBase
					{
						OFFSET -3.115300 -8.682800 16.113400
						CHANNELS 3 Xrotation Yrotation Zrotation
						End Site
						{
							OFFSET 0.000000 18.567114 0.000000
						}
					}
				}
			}
			JOINT Right_ShortSleeve
			{
				OFFSET -0.265923 -10.480953 1.153800
				CHANNELS 3 Xrotation Yrotation Zrotation
				End Site
				{
					OFFSET -1.725766 19.823910 0.000000
				}
			}
		}
	}
	JOINT Spine
	{
		OFFSET 0.000000 13.368103 0.470500
		CHANNELS 3 Xrotation Yrotation Zrotation
		JOINT Spine1
		{
			OFFSET 0.147000 13.837402 0.538800
			CHANNELS 3 Xrotation Yrotation Zrotation
			JOINT Spine2
			{
				OFFSET 0.168000 16.242897 -1.435500
				CHANNELS 3 Xrotation Yrotation Zrotation
				JOINT Neck
				{
					OFFSET 0.217200 18.631500 -1.679100
					CHANNELS 3 Xrotation Yrotation Zrotation
					JOINT Head
					{
						OFFSET 0.000000 6.599396 1.385900
						CHANNELS 3 Xrotation Yrotation Zrotation
						JOINT Hat
						{
							OFFSET -0.532200 27.220596 -10.096100
							CHANNELS 3 Xrotation Yrotation Zrotation
							End Site
							{
								OFFSET 0.000000 22.029861 0.000000
							}
						}
						JOINT HairD
						{
							OFFSET -10.777400 17.437393 -1.325900
							CHANNELS 3 Xrotation Yrotation Zrotation
							JOINT HairD1
							{
								OFFSET -3.290299 -11.051193 1.062200
								CHANNELS 3 Xrotation Yrotation Zrotation
								End Site
								{
									OFFSET 0.000000 11.579437 0.000000
								}
							}
						}
						JOINT HairB
						{
							OFFSET -10.777400 17.437393 1.467900
							CHANNELS 3 Xrotation Yrotation Zrotation
							JOINT HairB1
							{
								OFFSET -1.561200 -12.956299 3.590200
								CHANNELS 3 Xrotation Yrotation Zrotation
								End Site
								{
									OFFSET 0.000000 13.534866 0.000000
								}
							}
						}
						JOINT HairA
						{
							OFFSET 9.713100 17.437393 1.467900
							CHANNELS 3 Xrotation Yrotation Zrotation
							JOINT HairA1
							{
								OFFSET 1.561200 -12.956299 3.590200
								CHANNELS 3 Xrotation Yrotation Zrotation
								End Site
								{
									OFFSET 0.000000 13.534866 0.000000
								}
							}
						}
						JOINT HairC
						{
							OFFSET 9.713100 17.437393 -1.325900
							CHANNELS 3 Xrotation Yrotation Zrotation
							JOINT HairC1
							{
								OFFSET 3.290300 -11.051193 1.062200
								CHANNELS 3 Xrotation Yrotation Zrotation
								End Site
								{
									OFFSET 0.000000 11.579437 0.000000
								}
							}
						}
					}
				}
				JOINT LeftShoulder
				{
					OFFSET 5.101800 15.108002 -2.763700
					CHANNELS 3 Xrotation Yrotation Zrotation
					JOINT LeftArm
					{
						OFFSET 9.825497 2.506317 -1.597400
						CHANNELS 3 Xrotation Yrotation Zrotation
						JOINT LeftForeArm
						{
							OFFSET 21.966244 0.000000 0.000000
							CHANNELS 3 Xrotation Yrotation Zrotation
							JOINT LeftHand
							{
								OFFSET 33.879036 0.000000 0.000000
								CHANNELS 3 Xrotation Yrotation Zrotation
								JOINT LeftHandThumb1
								{
									OFFSET 6.715286 -2.359680 3.363841
									CHANNELS 3 Xrotation Yrotation Zrotation
									JOINT LeftHandThumb2
									{
										OFFSET 2.507072 -1.447464 1.447461
										CHANNELS 3 Xrotation Yrotation Zrotation
										JOINT LeftHandThumb3
										{
											OFFSET 2.898338 -1.673355 1.673357
											CHANNELS 3 Xrotation Yrotation Zrotation
											End Site
											{
												OFFSET -0.295959 3.727692 -0.131651
											}
										}
									}
								}
								JOINT LeftHandIndex1
								{
									OFFSET 14.190811 -0.254547 3.840278
									CHANNELS 3 Xrotation Yrotation Zrotation
									JOINT LeftHandIndex2
									{
										OFFSET 3.551727 0.000000 -0.000000
										CHANNELS 3 Xrotation Yrotation Zrotation
										JOINT LeftHandIndex3
										{
											OFFSET 2.894196 0.000000 0.000000
											CHANNELS 3 Xrotation Yrotation Zrotation
											End Site
											{
												OFFSET -1.000603 2.690872 0.366626
											}
										}
									}
								}
								JOINT LeftHandMiddle1
								{
									OFFSET 13.776489 0.000000 0.000000
									CHANNELS 3 Xrotation Yrotation Zrotation
									JOINT LeftHandMiddle2
									{
										OFFSET 3.438232 0.000000 0.000000
										CHANNELS 3 Xrotation Yrotation Zrotation
										JOINT LeftHandMiddle3
										{
											OFFSET 3.691551 0.000000 0.000000
											CHANNELS 3 Xrotation Yrotation Zrotation
											End Site
											{
												OFFSET -1.082298 3.499527 0.457670
											}
										}
									}
								}
								JOINT LeftHandRing1
								{
									OFFSET 13.966164 -0.268127 -3.067488
									CHANNELS 3 Xrotation Yrotation Zrotation
									JOINT LeftHandRing2
									{
										OFFSET 3.162567 0.000000 0.000000
										CHANNELS 3 Xrotation Yrotation Zrotation
										JOINT LeftHandRing3
										{
											OFFSET 3.324348 0.000000 0.000000
											CHANNELS 3 Xrotation Yrotation Zrotation
											End Site
											{
												OFFSET -0.861900 3.184998 0.405154
											}
										}
									}
								}
								JOINT LeftHandPinky1
								{
									OFFSET 13.131393 -0.168503 -5.746925
									CHANNELS 3 Xrotation Yrotation Zrotation
									JOINT LeftHandPinky2
									{
										OFFSET 2.849182 0.000000 0.000000
										CHANNELS 3 Xrotation Yrotation Zrotation
										JOINT LeftHandPinky3
										{
											OFFSET 2.805038 0.000000 0.000000
											CHANNELS 3 Xrotation Yrotation Zrotation
											End Site
											{
												OFFSET -0.882500 2.642609 0.325652
											}
										}
									}
								}
							}
							JOINT Left_Sleeve
							{
								OFFSET 6.592125 -0.646545 0.805568
								CHANNELS 3 Xrotation Yrotation Zrotation
								End Site
								{
									OFFSET -0.000179 20.275787 -0.000000
								}
							}
						}
					}
				}
				JOINT RightShoulder
				{
					OFFSET -5.731700 15.108002 -2.763700
					CHANNELS 3 Xrotation Yrotation Zrotation
					JOINT RightArm
					{
						OFFSET -9.825497 2.506317 -1.597400
						CHANNELS 3 Xrotation Yrotation Zrotation
						JOINT RightForeArm
						{
							OFFSET -21.966242 0.000000 0.000000
							CHANNELS 3 Xrotation Yrotation Zrotation
							JOINT RightHand
							{
								OFFSET -33.879032 0.000000 0.000000
								CHANNELS 3 Xrotation Yrotation Zrotation
								JOINT RightHandThumb1
								{
									OFFSET -6.715286 -2.359680 3.363841
									CHANNELS 3 Xrotation Yrotation Zrotation
									JOINT RightHandThumb2
									{
										OFFSET -2.507072 -1.447464 1.447461
										CHANNELS 3 Xrotation Yrotation Zrotation
										JOINT RightHandThumb3
										{
											OFFSET -2.898338 -1.673355 1.673357
											CHANNELS 3 Xrotation Yrotation Zrotation
											End Site
											{
												OFFSET 0.295959 3.727692 -0.131651
											}
										}
									}
								}
								JOINT RightHandIndex1
								{
									OFFSET -14.190811 -0.254547 3.840278
									CHANNELS 3 Xrotation Yrotation Zrotation
									JOINT RightHandIndex2
									{
										OFFSET -3.551727 0.000000 -0.000000
										CHANNELS 3 Xrotation Yrotation Zrotation
										JOINT RightHandIndex3
										{
											OFFSET -2.894196 0.000000 0.000000
											CHANNELS 3 Xrotation Yrotation Zrotation
											End Site
											{
												OFFSET 1.000603 2.690872 0.366626
											}
										}
									}
								}
								JOINT RightHandMiddle1
								{
									OFFSET -13.776489 0.000000 0.000000
									CHANNELS 3 Xrotation Yrotation Zrotation
									JOINT RightHandMiddle2
									{
										OFFSET -3.438232 0.000000 0.000000
										CHANNELS 3 Xrotation Yrotation Zrotation
										JOINT RightHandMiddle3
										{
											OFFSET -3.691551 0.000000 0.000000
											CHANNELS 3 Xrotation Yrotation Zrotation
											End Site
											{
												OFFSET 1.082298 3.499527 0.457670
											}
										}
									}
								}
								JOINT RightHandRing1
								{
									OFFSET -13.966164 -0.268127 -3.067488
									CHANNELS 3 Xrotation Yrotation Zrotation
									JOINT RightHandRing2
									{
										OFFSET -3.162567 0.000000 0.000000
										CHANNELS 3 Xrotation Yrotation Zrotation
										JOINT RightHandRing3
										{
											OFFSET -3.324348 0.000000 0.000000
											CHANNELS 3 Xrotation Yrotation Zrotation
											End Site
											{
												OFFSET 0.861900 3.184998 0.405154
											}
										}
									}
								}
								JOINT RightHandPinky1
								{
									OFFSET -13.131393 -0.168503 -5.746925
									CHANNELS 3 Xrotation Yrotation Zrotation
									JOINT RightHandPinky2
									{
										OFFSET -2.849182 0.000000 0.000000
										CHANNELS 3 Xrotation Yrotation Zrotation
										JOINT RightHandPinky3
										{
											OFFSET -2.805038 0.000000 0.000000
											CHANNELS 3 Xrotation Yrotation Zrotation
											End Site
											{
												OFFSET 0.882500 2.642609 0.325652
											}
										}
									}
								}
							}
							JOINT Right_Sleeve
							{
								OFFSET -6.592125 -0.646545 0.805568
								CHANNELS 3 Xrotation Yrotation Zrotation
								End Site
								{
									OFFSET 0.000179 20.275787 -0.000000
								}
							}
						}
					}
				}
				JOINT Bind_Right_JacketString
				{
					OFFSET -3.534800 11.969597 7.200700
					CHANNELS 3 Xrotation Yrotation Zrotation
					JOINT Bind_Right_JacketString1
					{
						OFFSET -0.319900 -6.102600 2.794100
						CHANNELS 3 Xrotation Yrotation Zrotation
						End Site
						{
							OFFSET 0.000000 6.719452 0.000000
						}
					}
				}
				JOINT Bind_Left_JacketString
				{
					OFFSET 2.904800 11.969597 7.200700
					CHANNELS 3 Xrotation Yrotation Zrotation
					JOINT Bind_Left_JacketString1
					{
						OFFSET 0.364800 -5.904503 3.186800
						CHANNELS 3 Xrotation Yrotation Zrotation
						End Site
						{
							OFFSET 0.000000 6.719513 0.000000
						}
					}
				}
				JOINT HairE
				{
					OFFSET 5.915200 17.612701 -11.592200
					CHANNELS 3 Xrotation Yrotation Zrotation
					JOINT HairE1
					{
						OFFSET 0.289200 -7.171898 -1.284500
						CHANNELS 3 Xrotation Yrotation Zrotation
						End Site
						{
							OFFSET 0.000000 7.291756 0.000000
						}
					}
				}
				JOINT HairF
				{
					OFFSET -0.864800 17.612701 -11.592200
					CHANNELS 3 Xrotation Yrotation Zrotation
					JOINT HairF1
					{
						OFFSET 0.000000 -14.087097 -2.127501
						CHANNELS 3 Xrotation Yrotation Zrotation
						End Site
						{
							OFFSET 0.000000 14.246841 0.000000
						}
					}
				}
				JOINT HairG
				{
					OFFSET -8.087700 17.612701 -11.592200
					CHANNELS 3 Xrotation Yrotation Zrotation
					JOINT HairG1
					{
						OFFSET -0.293600 -6.081398 -0.910100
						CHANNELS 3 Xrotation Yrotation Zrotation
						End Site
						{
							OFFSET 0.000000 6.156120 0.000000
						}
					}
				}
			}
		}
	}
	JOINT Pouch
	{
		OFFSET 0.000000 4.394501 10.847300
		CHANNELS 3 Xrotation Yrotation Zrotation
		End Site
		{
			OFFSET 0.000000 21.880577 0.000000
		}
	}
	JOINT Bag
	{
		OFFSET -13.229000 4.813004 -0.593300
		CHANNELS 3 Xrotation Yrotation Zrotation
		End Site
		{
			OFFSET 0.000000 21.880577 0.000000
		}
	}
	JOINT OccupyGuyFacialAnim_Joint
	{
		OFFSET 1.000000 -70.206398 -1.655000
		CHANNELS 3 Xrotation Yrotation Zrotation
		End Site
		{
			OFFSET 0.000000 21.880577 0.000000
		}
	}
}
MOTION
Frames: 4
Frame Time: 0.033333
-0.005151 41.864525 1.187777 0.144286 0.170043 0.952868 -0.000000 -0.000000 -0.000000 -87.443797 -5.006878 11.063931 82.703851 6.672374 0.241722 5.742992 -7.106017 -5.753251 0.000000 -0.000000 -0.000000 0.000000 -0.000000 0.000001 -88.199653 6.572126 -7.376901 82.637004 -6.356697 -1.870250 6.769922 0.052891 6.767592 0.000000 -0.000000 0.000000 -0.000000 0.000000 -0.000001 10.430382 0.009621 -1.559215 -0.199252 0.213109 -0.355134 -0.199575 0.247826 -0.300159 -1.001766 -1.284122 0.469464 -8.883495 -4.326846 -5.321533 -0.000000 -0.000000 -0.000000 -0.000000 -0.000000 -0.000000 -0.000000 -0.000000 -0.000000 -0.000000 -0.000000 -0.000000 0.000000 -0.000000 -0.000000 -0.000000 -0.000000 -0.000000 0.000000 -0.000000 -0.000000 -0.000000 -0.000000 -0.000000 -0.000000 -0.000000 -0.000000 0.823519 -15.262025 -7.868748 4.746720 -21.216437 -54.862221 -0.000005 -62.197526 -0.000001 31.062952 4.315274 41.770220 6.610595 1.798177 20.801483 2.716396 20.172588 -24.389171 -0.000001 0.000001 -0.000000 -0.235319 2.798390 -26.913107 0.396820 2.121294 -21.189296 0.000001 0.000001 -0.000004 1.299150 7.334312 -16.511082 0.329953 1.940084 -19.302248 0.000003 0.000000 0.000001 1.797292 9.808092 -14.183661 0.205921 1.541120 -15.220643 -0.000001 0.000001 0.000000 2.041306 10.867565 -13.918929 0.168517 1.396430 -13.761331 0.000000 -0.000002 0.000001 0.000001 -0.000003 0.000002 3.171095 -4.378725 8.782883 -3.950276 37.253395 63.733663 -0.000027 55.137945 0.000028 43.537289 4.741012 -36.277942 -9.383516 -1.613322 -17.604702 3.557093 -24.337041 34.656848 0.000002 0.000001 0.000001 2.957828 1.012856 13.530007 0.472464 -2.045697 26.006734 0.000001 -0.000001 -0.000002 0.106536 -3.687619 2.523587 0.585012 -2.261698 29.000590 -0.000003 0.000000 0.000001 0.456437 -7.644368 4.305920 0.107456 -0.995715 12.319038 0.000000 -0.000000 0.000002 -11.162312 -10.227921 7.169808 0.029124 -0.520500 6.403076 -0.000002 0.000001 -0.000003 0.000000 -0.000000 0.000000 -0.000001 0.000000 0.000000 -0.000001 -0.000000 0.000000 -0.000001 0.000000 0.000000 -0.000001 0.000000 0.000000 -0.000001 0.000000 0.000000 -0.000001 -0.000000 0.000000 -0.000001 0.000000 0.000000 -0.000001 0.000000 0.000000 -0.000001 0.000000 0.000000 -0.000001 -0.000000 0.000000 -0.000000 -0.000000 -0.000000 -0.000000 -0.000000 -0.000000 -0.000000 -0.000000 -0.000000 
-0.002379 41.881676 1.180914 -0.202315 0.198373 1.015514 -0.000000 0.000000 -0.000000 -87.078287 -4.906992 11.050971 82.684535 6.645620 0.241986 5.732032 -7.107859 -5.720721 -0.000000 -0.000001 0.000000 0.000000 0.000000 0.000001 -87.855712 6.576634 -7.479096 82.660131 -6.287115 -1.870522 6.740089 0.055197 6.719575 0.000000 -0.000001 0.000000 -0.000000 0.000001 -0.000000 10.386220 -0.010154 -1.574539 -0.276130 0.174830 -0.354456 -0.276551 0.212226 -0.295607 -1.036543 -1.283245 0.407271 -9.050895 -4.394595 -5.182538 0.000000 0.000000 -0.000000 0.000000 0.000000 -0.000000 0.000000 0.000000 -0.000000 0.000000 0.000000 -0.000000 0.000000 0.000000 -0.000001 0.000000 0.000000 -0.000000 0.000000 0.000000 -0.000001 0.000000 0.000000 -0.000000 0.000000 0.000000 -0.000000 0.819140 -15.379648 -7.833409 4.898670 -21.637092 -54.284564 -0.000031 -60.972696 -0.000031 32.005795 4.765642 45.636384 6.429391 1.798814 21.137603 3.051804 20.216137 -24.664389 0.000000 0.000001 -0.000000 -0.041005 3.097020 -30.224458 0.514088 2.401721 -24.160170 0.000002 0.000003 0.000000 1.573702 7.557434 -19.693624 0.434771 2.216594 -22.191718 0.000000 0.000003 -0.000004 2.351527 10.048982 -18.483569 0.353604 2.006311 -19.989172 -0.000000 0.000003 -0.000005 2.326957 11.297654 -21.324136 0.332346 1.946919 -19.372980 0.000002 -0.000002 0.000003 0.000001 0.000003 -0.000002 3.118397 -4.273557 8.514545 -2.729533 34.926128 63.351637 -0.000039 57.189792 0.000062 42.211392 5.292971 -37.239977 -9.477982 -1.678504 -18.016413 3.667974 -24.320557 34.963158 -0.000000 0.000001 -0.000000 3.032538 0.777073 16.591713 0.585697 -2.262928 29.018434 0.000000 0.000000 0.000005 0.185461 -3.923144 5.491020 0.700215 -2.457923 31.798144 0.000001 0.000002 -0.000001 0.870316 -7.932115 8.631725 0.191842 -1.324231 16.485075 0.000001 -0.000001 -0.000001 -10.589279 -10.559913 13.795252 0.118290 -1.044071 12.927301 -0.000000 -0.000001 0.000000 0.000003 -0.000003 0.000000 -0.000000 0.000000 -0.000000 -0.000000 0.000000 -0.000000 -0.000000 0.000000 -0.000000 -0.000000 0.000000 -0.000000 -0.000000 0.000000 -0.000000 -0.000000 0.000000 -0.000000 -0.000000 0.000000 -0.000000 -0.000000 0.000000 -0.000000 -0.000000 0.000000 -0.000000 -0.000000 0.000000 -0.000000 -0.000000 0.000000 -0.000000 -0.000000 0.000000 -0.000000 -0.000000 0.000000 -0.000000 
0.006586 41.934700 1.173996 -0.619424 0.230341 1.052158 0.000000 -0.000000 0.000000 -86.591520 -4.787089 11.060465 82.612839 6.595189 0.242055 5.714719 -7.109964 -5.653453 0.000000 0.000001 -0.000000 -0.000000 0.000000 -0.000000 -87.366999 6.548676 -7.592775 82.615824 -6.212359 -1.869736 6.704213 0.055987 6.676649 -0.000000 0.000000 -0.000000 -0.000000 -0.000000 -0.000000 10.272854 -0.001992 -1.572687 -0.488417 0.171029 -0.325413 -0.488788 0.210614 -0.263539 -1.095110 -1.277469 0.324043 -8.877264 -4.489103 -4.968849 -0.000000 0.000000 -0.000000 -0.000000 0.000000 -0.000000 -0.000000 0.000000 -0.000000 -0.000000 0.000000 -0.000000 -0.000000 0.000000 -0.000000 -0.000000 0.000000 -0.000000 -0.000000 0.000000 -0.000000 -0.000000 0.000000 -0.000000 -0.000000 0.000000 -0.000000 0.825132 -15.585880 -7.649194 5.381198 -22.770160 -53.003340 -0.000016 -59.504526 -0.000009 31.114674 6.389907 46.645626 6.114238 1.802324 21.794340 3.460469 20.356279 -24.949730 0.000001 0.000001 -0.000000 0.203985 3.444189 -34.296808 0.660010 2.703302 -27.436001 0.000000 0.000001 0.000004 1.925138 7.818432 -23.545399 0.564220 2.510369 -25.329934 -0.000001 0.000000 -0.000001 3.038006 10.302640 -23.608144 0.558623 2.498565 -25.201986 -0.000000 0.000000 -0.000001 2.778988 11.920685 -29.944850 0.574059 2.531083 -25.553819 -0.000001 0.000000 0.000001 0.000004 0.000001 -0.000001 2.990879 -4.153964 7.778684 -1.577305 32.946695 62.949079 -0.000016 58.795621 0.000004 37.892605 4.885518 -35.594711 -9.625534 -1.848966 -18.842614 3.820745 -24.313382 35.506977 -0.000001 -0.000001 0.000002 3.151259 0.518765 20.212925 0.726737 -2.500123 32.411464 0.000001 0.000000 -0.000001 0.292422 -4.192505 8.935074 0.833465 -2.660611 34.781447 0.000001 -0.000000 -0.000001 1.370483 -8.233258 13.584173 0.311011 -1.674975 21.036786 0.000002 -0.000001 -0.000004 -10.078013 -10.913884 21.255113 0.287261 -1.611874 20.208293 0.000005 -0.000000 -0.000001 0.000002 -0.000002 0.000002 0.000001 -0.000000 -0.000000 0.000001 -0.000000 -0.000000 0.000001 -0.000000 -0.000000 0.000001 -0.000000 -0.000000 0.000001 -0.000000 -0.000000 0.000001 -0.000000 0.000000 0.000001 -0.000000 -0.000000 0.000001 -0.000000 -0.000000 0.000001 -0.000000 -0.000000 0.000001 -0.000000 0.000000 0.000000 -0.000000 0.000000 0.000000 -0.000000 0.000000 0.000000 -0.000000 0.000000 
0.016505 42.013741 1.156722 -1.169745 0.235066 1.042639 -0.000000 -0.000000 -0.000000 -85.941661 -4.673246 11.131259 82.504792 6.507560 0.240473 5.699967 -7.109703 -5.551893 -0.000000 -0.000001 -0.000000 -0.000000 -0.000000 -0.000000 -86.692640 6.453611 -7.686465 82.498515 -6.146839 -1.867203 6.683862 0.054260 6.619253 -0.000000 -0.000000 0.000000 -0.000000 0.000000 -0.000000 10.085786 0.030453 -1.564033 -0.841128 0.205622 -0.271019 -0.841327 0.246596 -0.207602 -1.166509 -1.275523 0.298647 -8.551632 -4.544389 -4.769146 -0.000000 0.000001 0.000000 -0.000000 0.000001 0.000000 -0.000000 0.000001 0.000000 -0.000000 0.000001 0.000000 -0.000000 0.000000 0.000000 -0.000000 0.000001 0.000000 -0.000000 0.000000 0.000000 -0.000000 0.000001 0.000000 -0.000000 0.000001 0.000000 0.837842 -15.716607 -7.366283 5.846147 -24.194704 -50.890162 -0.000025 -58.612708 -0.000032 23.861874 7.066181 43.191155 5.743110 1.803453 22.586001 3.900550 20.534931 -25.243392 -0.000000 0.000002 -0.000001 0.485890 3.791315 -38.701081 0.830213 3.008160 -30.850978 0.000003 0.000001 0.000000 2.323990 8.078931 -27.690550 0.715184 2.806907 -28.583471 0.000001 0.000001 -0.000001 3.795407 10.512887 -29.096678 0.818118 2.987926 -30.620243 -0.000002 -0.000001 0.000003 3.419585 12.666345 -39.121971 0.891326 3.108080 -31.996598 -0.000002 -0.000001 -0.000001 -0.000002 -0.000002 0.000002 2.803212 -3.788199 6.846570 -1.113629 31.321366 62.294378 -0.000019 59.808989 0.000034 27.023449 3.380418 -28.574165 -9.791198 -2.063041 -19.838792 3.991927 -24.308479 36.150890 -0.000003 0.000000 -0.000000 3.307319 0.270595 24.079881 0.889687 -2.739728 35.975327 -0.000001 0.000001 0.000002 0.424510 -4.475124 12.589623 0.981457 -2.861746 37.853117 0.000000 -0.000002 -0.000004 1.925551 -8.506324 18.817957 0.463899 -2.028053 25.765666 -0.000001 0.000000 0.000000 -9.695423 -11.314743 29.072004 0.539725 -2.178065 27.831750 -0.000000 0.000002 -0.000001 -0.000001 -0.000001 -0.000001 -0.000000 0.000000 0.000000 -0.000000 0.000000 0.000000 -0.000000 0.000000 0.000000 -0.000000 0.000000 0.000000 -0.000000 0.000000 0.000000 -0.000000 0.000000 0.000000 -0.000000 0.000000 0.000000 -0.000000 0.000000 0.000000 -0.000000 0.000000 0.000000 -0.000000 0.000000 0.000000 -0.000000 -0.000000 -0.000000 -0.000000 -0.000000 -0.000000 -0.000000 -0.000000 -0.000000 
